<?xml version="1.0" encoding="UTF-8" ?>
<!DOCTYPE svg PUBLIC "-//W3C//DTD SVG 1.1//EN" "http://www.w3.org/Graphics/SVG/1.1/DTD/svg11.dtd">
<svg width="191pt" height="43pt" viewBox="0 0 191 43" version="1.1" xmlns="http://www.w3.org/2000/svg">
<path fill="#dd4814" d=" M 0.00 0.00 L 191.00 0.00 L 191.00 43.00 L 0.00 43.00 L 0.00 0.00 Z" />
<path fill="#ffffff" d=" M 93.29 9.71 C 92.51 6.80 95.60 5.68 97.93 5.67 C 99.48 7.85 99.48 10.15 97.93 12.33 C 96.14 11.91 93.60 12.09 93.29 9.71 Z" />
<path fill="#ffffff" d=" M 102.66 7.14 C 104.37 6.55 106.11 6.07 107.88 5.71 C 107.91 8.52 107.90 11.32 107.89 14.13 C 109.80 14.04 111.72 13.98 113.63 13.92 C 118.26 16.13 119.93 22.11 117.77 26.62 C 116.91 28.92 114.44 29.78 112.56 31.03 C 110.23 31.00 107.91 30.99 105.58 30.97 C 104.86 30.62 103.43 29.94 102.71 29.60 C 102.72 22.11 102.81 14.62 102.66 7.14 Z" />
<path fill="#ffffff" d=" M 14.62 9.03 C 16.86 9.02 19.11 9.02 21.35 9.06 C 22.60 9.59 23.85 10.11 25.12 10.61 C 24.62 11.79 24.12 12.98 23.63 14.16 C 21.31 13.51 18.92 12.57 16.48 13.07 C 10.20 14.64 10.19 25.36 16.47 26.92 C 19.07 27.45 21.62 26.56 24.09 25.85 C 24.50 27.14 24.91 28.43 25.33 29.73 C 20.90 31.03 15.74 32.07 11.47 29.76 C 5.19 26.58 4.51 17.06 9.23 12.25 C 10.66 10.64 12.77 9.99 14.62 9.03 Z" />
<path fill="#ffffff" d=" M 68.56 9.02 C 69.23 9.01 70.57 9.00 71.24 8.99 C 71.24 10.66 71.24 12.33 71.24 13.99 C 73.13 14.00 75.01 14.00 76.90 14.00 C 76.90 15.33 76.90 16.66 76.91 18.00 C 75.01 18.00 73.11 18.00 71.22 18.01 C 71.16 21.07 71.11 24.17 72.01 27.14 C 73.67 26.99 75.32 26.84 76.97 26.65 C 77.16 27.54 77.52 29.32 77.70 30.20 C 74.03 31.60 68.44 31.85 66.64 27.55 C 65.57 21.90 66.42 16.09 66.09 10.37 C 66.71 10.03 67.95 9.36 68.56 9.02 Z" />
<path fill="#ffffff" d=" M 143.56 9.02 C 144.23 9.01 145.57 9.00 146.24 8.99 C 146.24 10.66 146.24 12.33 146.24 13.99 C 148.13 14.00 150.01 14.00 151.90 14.00 C 151.90 15.33 151.90 16.67 151.91 18.00 C 150.01 18.00 148.11 18.00 146.22 18.01 C 146.16 21.07 146.12 24.18 147.02 27.14 C 148.67 26.99 150.32 26.84 151.97 26.65 C 152.16 27.54 152.52 29.32 152.70 30.20 C 149.02 31.61 143.41 31.85 141.63 27.51 C 140.58 21.88 141.41 16.07 141.09 10.37 C 141.71 10.03 142.94 9.36 143.56 9.02 Z" />
<path fill="#ffffff" d=" M 32.65 13.93 C 35.17 14.05 37.90 13.65 40.09 15.21 C 44.92 18.45 44.92 26.56 40.08 29.80 C 37.89 31.35 35.16 30.95 32.64 31.07 C 29.69 29.39 26.70 26.81 27.03 23.04 C 26.36 18.93 29.24 15.69 32.65 13.93 Z" />
<path fill="#ffffff" d=" M 49.65 14.06 C 53.27 14.16 57.96 12.98 60.45 16.38 C 62.73 20.89 61.54 26.14 61.82 31.00 C 60.08 31.00 58.35 31.00 56.61 31.00 C 56.50 27.06 57.03 23.04 56.13 19.18 C 55.48 17.56 53.24 18.22 51.91 17.80 C 51.90 22.20 51.90 26.60 51.90 31.00 C 50.29 31.00 48.68 31.00 47.06 31.00 C 47.06 25.80 47.09 20.60 47.03 15.40 C 47.69 15.06 49.00 14.39 49.65 14.06 Z" />
<path fill="#ffffff" d=" M 80.60 15.20 C 84.21 13.87 88.07 13.83 91.87 14.07 C 91.77 15.38 91.67 16.68 91.56 17.98 C 89.65 18.00 87.73 18.00 85.82 18.01 C 85.82 22.34 85.82 26.67 85.82 31.00 C 84.09 31.00 82.35 31.00 80.62 31.00 C 80.61 25.73 80.64 20.47 80.60 15.20 Z" />
<path fill="#ffffff" d=" M 93.73 14.03 C 95.43 14.01 97.12 14.00 98.82 13.99 C 98.82 19.66 98.82 25.34 98.82 31.01 C 97.12 31.00 95.43 30.99 93.73 30.97 C 93.74 25.32 93.74 19.68 93.73 14.03 Z" />
<path fill="#ffffff" d=" M 122.07 14.00 C 123.68 14.00 125.30 14.00 126.91 14.00 C 126.98 17.91 126.57 21.87 127.33 25.73 C 128.25 27.23 130.13 26.92 131.61 27.20 C 131.63 22.80 131.61 18.40 131.62 14.00 C 133.35 14.00 135.09 14.00 136.83 14.00 C 136.83 19.27 136.77 24.54 136.88 29.81 C 133.59 31.23 130.02 31.06 126.52 31.03 C 124.95 29.80 122.68 28.92 122.33 26.71 C 121.75 22.50 122.16 18.23 122.07 14.00 Z" />
<path fill="#ffffff" d=" M 160.45 14.41 C 163.92 13.18 168.43 14.06 170.45 17.37 C 171.35 19.45 171.45 21.75 171.74 23.97 C 167.71 24.01 163.69 23.96 159.67 24.11 C 160.69 25.13 161.74 26.14 162.79 27.14 C 165.20 27.14 167.60 26.85 169.89 26.07 C 170.13 27.36 170.38 28.64 170.63 29.93 C 166.73 31.33 161.91 31.92 158.31 29.45 C 153.11 25.84 154.40 16.40 160.45 14.41 Z" />
<path fill="#dd4814" d=" M 34.14 18.01 C 34.85 17.99 36.26 17.95 36.96 17.93 C 38.83 20.75 38.83 24.25 36.96 27.07 C 36.26 27.05 34.85 27.01 34.14 26.99 C 33.48 26.22 32.83 25.44 32.17 24.66 C 32.17 23.22 32.17 21.78 32.18 20.33 C 32.83 19.56 33.49 18.78 34.14 18.01 Z" />
<path fill="#dd4814" d=" M 107.92 18.05 C 109.15 18.01 110.38 18.02 111.61 18.08 C 114.59 20.23 113.69 24.86 111.26 27.12 C 110.42 27.08 108.74 26.99 107.90 26.94 C 107.90 23.98 107.90 21.02 107.92 18.05 Z" />
<path fill="#dd4814" d=" M 162.13 17.98 C 162.81 17.97 164.17 17.95 164.85 17.94 C 165.45 18.95 166.04 19.97 166.62 20.99 C 164.32 20.99 162.03 20.96 159.73 20.90 C 160.52 19.92 161.32 18.95 162.13 17.98 Z" />
</svg>
