<?xml version="1.0" encoding="UTF-8" ?>
<!DOCTYPE svg PUBLIC "-//W3C//DTD SVG 1.1//EN" "http://www.w3.org/Graphics/SVG/1.1/DTD/svg11.dtd">
<svg width="128pt" height="43pt" viewBox="0 0 128 43" version="1.1" xmlns="http://www.w3.org/2000/svg">
<path fill="#dd4814" d=" M 0.00 0.00 L 128.00 0.00 L 128.00 43.00 L 0.00 43.00 L 0.00 0.00 Z" />
<path fill="#ffffff" d=" M 31.12 8.99 C 31.17 6.31 33.79 5.86 35.92 5.70 C 37.49 7.83 37.50 10.17 35.92 12.29 C 33.77 12.15 31.17 11.68 31.12 8.99 Z" />
<path fill="#ffffff" d=" M 9.14 9.00 C 10.95 9.00 12.75 9.00 14.56 9.00 C 14.56 12.00 14.56 15.00 14.56 18.00 C 17.08 18.00 19.61 18.00 22.14 18.00 C 22.14 15.00 22.14 12.00 22.14 9.00 C 23.95 9.00 25.75 9.00 27.56 9.01 C 27.56 16.33 27.56 23.66 27.56 30.99 C 25.75 31.00 23.95 31.00 22.14 31.00 C 22.14 28.00 22.14 25.00 22.14 22.00 C 19.61 22.00 17.08 22.00 14.56 22.00 C 14.56 25.00 14.56 28.00 14.56 30.99 C 12.75 31.00 10.95 31.00 9.14 31.00 C 9.14 23.67 9.14 16.33 9.14 9.00 Z" />
<path fill="#ffffff" d=" M 59.55 9.02 C 60.22 9.01 61.57 9.00 62.24 8.99 C 62.24 10.66 62.24 12.33 62.24 13.99 C 64.13 14.00 66.02 14.00 67.91 14.00 C 67.90 15.33 67.90 16.67 67.91 18.00 C 66.01 18.00 64.12 18.00 62.22 18.01 C 62.17 21.06 62.09 24.17 63.02 27.12 C 64.67 26.98 66.32 26.84 67.97 26.67 C 68.16 27.55 68.52 29.30 68.70 30.18 C 65.03 31.65 59.40 31.83 57.62 27.51 C 56.59 21.87 57.41 16.07 57.09 10.37 C 57.71 10.03 58.93 9.36 59.55 9.02 Z" />
<path fill="#ffffff" d=" M 31.73 14.03 C 33.43 14.01 35.12 14.00 36.82 13.99 C 36.82 19.66 36.82 25.34 36.82 31.01 C 35.12 31.00 33.43 30.99 31.73 30.97 C 31.74 25.32 31.74 19.67 31.73 14.03 Z" />
<path fill="#ffffff" d=" M 44.41 13.92 C 47.18 13.98 50.05 13.75 52.65 14.90 C 52.41 16.18 52.18 17.46 51.96 18.74 C 49.65 18.14 46.86 17.16 44.92 19.21 C 47.97 20.99 53.96 21.18 53.29 26.07 C 53.64 28.61 51.27 30.18 49.16 30.82 C 46.02 31.30 42.71 31.28 39.83 29.77 C 40.16 28.52 40.44 27.25 40.85 26.02 C 43.37 26.71 45.94 27.17 48.56 27.08 C 48.19 24.62 45.62 24.26 43.66 23.73 C 43.04 23.38 41.81 22.69 41.19 22.34 C 40.89 20.97 40.25 19.61 40.40 18.18 C 40.73 16.05 42.92 15.14 44.41 13.92 Z" />
<path fill="#ffffff" d=" M 76.62 13.96 C 79.13 14.03 81.87 13.64 84.05 15.19 C 88.93 18.40 88.93 26.59 84.07 29.80 C 81.87 31.36 79.13 30.97 76.61 31.04 C 73.68 29.37 70.72 26.81 71.03 23.07 C 70.35 18.96 73.21 15.71 76.62 13.96 Z" />
<path fill="#ffffff" d=" M 90.60 15.20 C 95.90 13.21 101.60 14.33 107.11 13.98 C 108.26 17.61 109.40 21.24 110.61 24.85 C 111.64 21.26 112.55 17.64 113.40 14.00 C 115.20 14.00 116.99 13.99 118.79 13.99 C 117.02 20.17 115.09 26.33 112.37 32.17 C 111.40 34.19 109.98 36.23 107.72 36.89 C 105.85 37.12 103.97 36.97 102.09 36.93 C 102.12 35.68 102.15 34.42 102.19 33.17 C 104.53 33.19 106.97 32.97 108.36 30.83 C 105.89 25.48 103.63 20.04 101.89 14.41 C 101.77 15.60 101.65 16.80 101.53 17.99 C 99.62 18.00 97.72 18.00 95.82 18.01 C 95.82 22.34 95.82 26.67 95.82 31.00 C 94.09 31.00 92.35 31.00 90.62 31.00 C 90.61 25.73 90.64 20.46 90.60 15.20 Z" />
<path fill="#dd4814" d=" M 78.15 18.00 C 78.85 17.99 80.24 17.95 80.94 17.94 C 82.85 20.71 82.85 24.29 80.94 27.06 C 80.24 27.04 78.85 27.01 78.15 27.00 C 77.49 26.22 76.83 25.45 76.18 24.68 C 76.17 23.23 76.17 21.77 76.18 20.32 C 76.83 19.55 77.49 18.78 78.15 18.00 Z" />
</svg>
