<?xml version="1.0" encoding="UTF-8" ?>
<!DOCTYPE svg PUBLIC "-//W3C//DTD SVG 1.1//EN" "http://www.w3.org/Graphics/SVG/1.1/DTD/svg11.dtd">
<svg width="324pt" height="42pt" viewBox="0 0 324 42" version="1.1" xmlns="http://www.w3.org/2000/svg">
<path fill="#dd4814" d=" M 0.00 0.00 L 324.00 0.00 L 324.00 42.00 L 0.00 42.00 L 0.00 0.00 Z" />
<path fill="#ffffff" d=" M 9.04 5.51 C 11.50 4.66 13.83 3.49 15.99 2.05 C 19.70 1.99 23.42 1.98 27.14 2.04 C 29.16 3.23 31.25 4.32 33.39 5.31 C 35.17 7.71 37.73 9.39 39.54 11.79 C 40.82 17.90 40.95 24.39 39.41 30.46 C 36.31 33.81 33.39 37.77 28.78 39.07 C 22.63 42.53 15.13 40.25 9.65 36.64 C 7.46 34.02 4.53 31.84 3.17 28.64 C 2.68 23.49 2.62 18.25 3.26 13.11 C 4.34 10.53 6.70 8.77 8.81 7.06 C 8.87 6.67 8.98 5.90 9.04 5.51 Z" />
<path fill="#ffffff" d=" M 70.74 6.02 C 72.42 5.50 74.13 5.05 75.85 4.69 C 75.90 7.50 75.91 10.31 75.91 13.11 C 77.85 13.04 79.81 12.99 81.76 12.93 C 86.24 15.30 87.96 21.16 85.75 25.66 C 84.86 27.89 82.46 28.77 80.61 30.02 C 78.29 30.01 75.96 30.00 73.64 29.98 C 72.90 29.62 71.43 28.91 70.70 28.56 C 70.77 21.04 70.71 13.53 70.74 6.02 Z" />
<path fill="#ffffff" d=" M 191.07 6.02 C 192.64 5.49 194.23 5.03 195.86 4.72 C 195.90 7.48 195.90 10.25 195.91 13.01 C 197.80 13.00 199.69 12.99 201.58 12.97 C 202.89 14.16 204.78 15.06 205.23 16.92 C 206.23 21.20 205.71 25.65 205.82 30.00 C 204.08 30.00 202.34 30.00 200.61 30.00 C 200.42 25.84 201.26 21.47 199.82 17.47 C 198.53 17.15 197.22 16.89 195.91 16.68 C 195.90 21.12 195.90 25.56 195.90 30.00 C 194.29 30.00 192.67 30.00 191.06 30.00 C 191.07 22.01 191.05 14.02 191.07 6.02 Z" />
<path fill="#ffffff" d=" M 227.74 6.02 C 229.42 5.50 231.12 5.05 232.85 4.69 C 233.04 10.83 232.71 16.99 232.99 23.13 C 232.83 24.83 234.50 25.73 235.42 26.85 C 235.24 27.88 235.06 28.91 234.88 29.94 C 233.74 29.97 232.59 30.01 231.45 30.05 C 230.17 28.87 228.04 28.08 228.04 26.04 C 227.34 19.40 227.91 12.69 227.74 6.02 Z" />
<path fill="#ffffff" d=" M 237.74 6.02 C 239.42 5.50 241.12 5.05 242.85 4.69 C 243.04 10.83 242.71 16.98 242.99 23.12 C 242.82 24.82 244.50 25.72 245.42 26.85 C 245.24 27.88 245.06 28.91 244.88 29.94 C 243.73 29.97 242.58 30.01 241.44 30.04 C 240.16 28.87 238.04 28.07 238.04 26.04 C 237.34 19.40 237.91 12.69 237.74 6.02 Z" />
<path fill="#dd4814" d=" M 26.31 8.14 C 27.71 7.91 29.13 7.73 30.55 7.62 C 30.63 8.38 30.78 9.89 30.86 10.65 C 30.18 11.06 28.81 11.88 28.13 12.29 C 27.02 11.12 25.75 9.93 26.31 8.14 Z" />
<path fill="#ffffff" d=" M 48.07 8.00 C 49.79 8.00 51.52 8.00 53.25 8.00 C 53.44 13.08 52.75 18.24 53.67 23.27 C 53.94 25.62 56.48 25.99 58.36 26.33 C 59.28 25.48 60.20 24.63 61.12 23.78 C 61.33 18.53 61.24 13.26 61.25 8.00 C 63.07 8.00 64.89 8.00 66.71 8.00 C 66.58 13.19 67.02 18.42 66.50 23.59 C 66.08 26.88 63.13 28.64 60.48 30.05 C 55.93 30.47 49.89 29.80 48.35 24.64 C 47.68 19.13 48.23 13.54 48.07 8.00 Z" />
<path fill="#ffffff" d=" M 130.58 8.01 C 131.25 8.01 132.58 7.99 133.24 7.99 C 133.24 9.66 133.24 11.33 133.24 13.00 C 135.13 13.00 137.01 13.00 138.90 13.00 C 138.90 14.33 138.90 15.66 138.91 16.99 C 136.99 17.00 135.08 17.01 133.16 17.04 C 133.20 20.08 133.26 23.13 133.82 26.13 C 135.56 26.00 137.30 25.86 139.04 25.68 C 139.16 26.66 139.41 28.60 139.53 29.57 C 135.78 30.23 130.43 30.94 128.65 26.56 C 127.56 20.92 128.42 15.09 128.10 9.37 C 128.72 9.03 129.96 8.35 130.58 8.01 Z" />
<path fill="#ffffff" d=" M 177.71 8.02 C 179.89 8.01 182.07 8.01 184.24 8.04 C 185.53 8.59 186.83 9.13 188.14 9.65 C 187.62 10.81 187.11 11.97 186.60 13.13 C 183.58 12.26 179.94 10.95 177.19 13.22 C 173.32 16.52 174.08 24.52 179.44 25.91 C 182.03 26.41 184.59 25.57 187.07 24.90 C 187.49 26.11 187.91 27.31 188.33 28.51 C 186.97 28.97 185.62 29.45 184.28 29.96 C 180.99 29.93 177.39 30.60 174.45 28.73 C 168.18 25.58 167.52 16.05 172.22 11.27 C 173.68 9.65 175.82 8.98 177.71 8.02 Z" />
<path fill="#dd4814" d=" M 16.34 10.97 C 18.56 10.64 20.79 10.14 23.05 10.29 C 25.77 11.55 28.10 13.58 31.06 14.38 C 32.07 16.24 33.02 18.12 33.89 20.05 C 32.19 20.06 30.50 20.07 28.81 20.08 C 28.22 18.39 28.18 16.39 27.05 14.95 C 24.42 13.26 21.04 14.08 18.08 13.96 C 17.50 12.96 16.92 11.96 16.34 10.97 Z" />
<path fill="#dd4814" d=" M 12.36 14.52 C 13.23 14.02 14.09 13.52 14.95 13.02 C 15.64 13.61 16.32 14.20 17.01 14.80 C 16.53 15.09 15.57 15.68 15.09 15.98 C 14.69 19.28 14.65 22.60 15.01 25.91 C 15.48 26.20 16.43 26.78 16.90 27.07 C 16.49 27.72 15.68 29.01 15.27 29.66 C 13.16 28.40 11.61 26.50 10.18 24.54 C 10.93 23.32 11.67 22.10 12.38 20.86 C 11.84 20.15 10.76 18.72 10.22 18.01 C 10.94 16.85 11.66 15.69 12.36 14.52 Z" />
<path fill="#ffffff" d=" M 90.07 13.00 C 91.68 13.00 93.29 13.00 94.91 13.00 C 94.97 16.91 94.59 20.88 95.33 24.75 C 96.34 26.04 98.14 25.94 99.57 26.40 C 99.65 21.93 99.61 17.47 99.62 13.00 C 101.35 13.00 103.09 13.00 104.82 13.00 C 104.82 18.31 104.81 23.62 104.83 28.94 C 101.51 30.11 97.97 30.09 94.49 30.04 C 92.94 28.81 90.71 27.87 90.34 25.70 C 89.75 21.50 90.16 17.23 90.07 13.00 Z" />
<path fill="#ffffff" d=" M 111.77 13.02 C 114.88 13.18 118.36 12.27 121.12 14.12 C 122.68 14.88 123.10 16.72 123.52 18.24 C 124.06 22.14 123.77 26.08 123.82 30.00 C 122.08 30.00 120.35 30.00 118.61 30.00 C 118.40 25.84 119.30 21.44 117.79 17.46 C 116.51 17.14 115.22 16.88 113.91 16.68 C 113.90 21.12 113.90 25.56 113.90 30.00 C 112.29 30.00 110.68 30.00 109.06 30.00 C 109.05 24.82 109.11 19.65 109.00 14.47 C 109.70 14.11 111.08 13.38 111.77 13.02 Z" />
<path fill="#ffffff" d=" M 143.07 13.00 C 144.68 13.00 146.29 13.00 147.91 13.00 C 147.97 16.92 147.59 20.88 148.33 24.75 C 149.34 26.04 151.14 25.94 152.56 26.40 C 152.65 21.94 152.61 17.47 152.62 13.00 C 154.35 13.00 156.09 13.00 157.82 13.00 C 157.82 18.31 157.81 23.62 157.83 28.94 C 154.51 30.11 150.97 30.09 147.49 30.05 C 145.95 28.81 143.72 27.88 143.34 25.71 C 142.75 21.51 143.16 17.23 143.07 13.00 Z" />
<path fill="#ffffff" d=" M 210.31 14.25 C 210.73 13.94 211.58 13.32 212.00 13.01 C 214.52 13.00 217.03 13.00 219.55 12.98 C 221.22 14.25 223.47 15.43 223.56 17.82 C 223.90 21.38 223.64 24.96 223.76 28.53 C 223.14 28.89 221.88 29.62 221.25 29.98 C 217.81 29.75 213.97 30.84 210.87 28.91 C 208.21 27.51 208.01 23.29 210.28 21.46 C 212.97 19.56 216.45 20.09 219.52 19.55 C 217.71 16.28 214.06 16.84 210.97 17.47 C 210.75 16.39 210.53 15.32 210.31 14.25 Z" />
<path fill="#ffffff" d=" M 252.43 13.42 C 255.76 12.23 259.92 12.99 262.15 15.87 C 263.34 18.01 263.39 20.55 263.81 22.91 C 259.75 23.04 255.68 22.97 251.62 23.09 C 252.67 24.14 253.74 25.17 254.83 26.19 C 257.23 26.03 259.63 25.78 261.97 25.19 C 262.17 26.47 262.37 27.76 262.58 29.05 C 258.47 30.24 253.43 31.02 249.85 28.11 C 245.19 24.24 246.58 15.37 252.43 13.42 Z" />
<path fill="#ffffff" d=" M 269.77 13.02 C 272.87 13.19 276.36 12.27 279.12 14.11 C 280.68 14.88 281.10 16.73 281.52 18.27 C 282.06 22.15 281.77 26.09 281.82 30.00 C 280.08 30.00 278.34 30.00 276.61 30.00 C 276.42 25.84 277.26 21.47 275.82 17.47 C 274.52 17.15 273.22 16.88 271.91 16.68 C 271.90 21.12 271.90 25.56 271.90 30.00 C 270.29 30.00 268.67 30.00 267.06 30.00 C 267.05 24.82 267.11 19.65 267.00 14.47 C 267.69 14.11 269.08 13.38 269.77 13.02 Z" />
<path fill="#ffffff" d=" M 286.31 16.42 C 289.56 11.84 296.01 12.47 300.71 14.04 C 300.56 19.56 301.03 25.11 300.48 30.61 C 300.16 33.38 297.46 34.65 295.43 36.05 C 292.24 36.06 289.00 36.11 285.94 35.08 C 286.18 33.72 286.44 32.37 286.69 31.01 C 288.92 31.62 291.26 32.39 293.59 31.90 C 294.65 31.03 295.60 30.04 296.42 28.93 C 293.37 28.86 289.84 29.69 287.34 27.43 C 284.52 24.61 284.36 19.74 286.31 16.42 Z" />
<path fill="#ffffff" d=" M 309.41 13.43 C 312.73 12.23 316.89 12.98 319.14 15.85 C 320.34 17.99 320.39 20.54 320.81 22.91 C 316.74 23.04 312.68 22.97 308.62 23.09 C 309.67 24.14 310.75 25.17 311.83 26.19 C 314.23 26.03 316.63 25.78 318.97 25.19 C 319.17 26.47 319.37 27.76 319.58 29.05 C 315.46 30.24 310.41 31.03 306.82 28.09 C 302.21 24.21 303.58 15.39 309.41 13.43 Z" />
<path fill="#dd4814" d=" M 75.94 16.76 C 77.69 17.07 79.88 16.64 81.00 18.38 C 81.57 20.59 81.88 23.40 80.10 25.16 C 78.91 26.07 77.29 25.97 75.91 26.34 C 75.90 23.15 75.90 19.96 75.94 16.76 Z" />
<path fill="#dd4814" d=" M 254.09 17.00 C 254.80 17.00 256.23 16.99 256.94 16.99 C 257.51 17.98 258.07 18.98 258.62 19.98 C 256.31 19.99 254.01 19.97 251.71 19.92 C 252.49 18.94 253.29 17.97 254.09 17.00 Z" />
<path fill="#dd4814" d=" M 291.94 16.95 C 293.18 16.99 294.43 17.03 295.69 17.07 C 295.63 19.68 295.59 22.29 295.41 24.90 C 294.45 24.94 292.52 25.01 291.56 25.05 C 289.69 22.47 290.05 19.43 291.94 16.95 Z" />
<path fill="#dd4814" d=" M 311.08 17.00 C 311.80 17.00 313.23 16.99 313.94 16.99 C 314.50 17.98 315.06 18.98 315.62 19.98 C 313.32 19.99 311.01 19.97 308.71 19.92 C 309.49 18.95 310.29 17.97 311.08 17.00 Z" />
<path fill="#dd4814" d=" M 4.99 21.15 C 6.15 20.14 7.33 19.16 8.51 18.18 C 9.54 19.65 11.23 21.09 10.05 23.04 C 8.02 23.76 6.28 22.61 4.99 21.15 Z" />
<path fill="#dd4814" d=" M 28.93 21.87 C 30.61 21.89 32.29 21.92 33.98 21.94 C 32.96 24.31 31.70 26.56 30.18 28.65 C 27.63 28.71 25.48 29.84 24.15 32.04 C 21.37 32.03 18.58 31.94 15.81 31.60 C 16.56 30.56 17.32 29.53 18.08 28.50 C 21.27 28.99 24.98 29.14 27.38 26.58 C 28.05 25.07 28.42 23.44 28.93 21.87 Z" />
<path fill="#dd4814" d=" M 213.67 23.86 C 215.27 23.21 216.99 22.98 218.68 22.67 C 218.70 23.55 218.72 25.32 218.73 26.21 C 216.87 25.74 213.54 26.76 213.67 23.86 Z" />
<path fill="#dd4814" d=" M 28.86 29.46 C 30.02 30.85 31.92 33.35 29.69 34.69 C 27.95 36.06 26.69 33.45 25.50 32.57 C 26.34 31.79 28.02 30.24 28.86 29.46 Z" />
</svg>
