<?xml version="1.0" encoding="UTF-8" ?>
<!DOCTYPE svg PUBLIC "-//W3C//DTD SVG 1.1//EN" "http://www.w3.org/Graphics/SVG/1.1/DTD/svg11.dtd">
<svg width="285pt" height="43pt" viewBox="0 0 285 43" version="1.1" xmlns="http://www.w3.org/2000/svg">
<path fill="#dd4814" d=" M 0.00 0.00 L 285.00 0.00 L 285.00 43.00 L 0.00 43.00 L 0.00 0.00 Z" />
<path fill="#ffffff" d=" M 40.05 6.02 C 41.64 5.52 43.24 5.06 44.86 4.70 C 44.91 7.47 44.91 10.24 44.91 13.01 C 46.78 13.00 48.65 12.99 50.53 12.96 C 52.09 14.21 54.18 15.38 54.40 17.59 C 55.11 21.69 54.76 25.87 54.82 30.00 C 53.08 30.00 51.35 30.00 49.61 30.00 C 49.56 26.29 49.90 22.55 49.31 18.88 C 49.19 16.62 46.43 17.20 44.91 16.69 C 44.90 21.13 44.90 25.56 44.90 30.00 C 43.29 30.00 41.68 30.00 40.06 30.00 C 40.06 22.01 40.08 14.02 40.05 6.02 Z" />
<path fill="#ffffff" d=" M 170.12 8.05 C 170.13 5.26 172.93 4.89 175.08 4.65 C 176.35 6.83 176.35 9.17 175.08 11.35 C 172.97 11.09 170.20 10.78 170.12 8.05 Z" />
<path fill="#ffffff" d=" M 179.72 6.06 C 181.40 5.51 183.12 5.04 184.86 4.69 C 184.91 7.50 184.90 10.31 184.90 13.12 C 186.83 13.05 188.76 12.99 190.69 12.92 C 195.23 15.22 196.94 21.10 194.77 25.61 C 193.89 27.88 191.46 28.79 189.58 30.02 C 187.26 30.00 184.94 30.00 182.63 29.98 C 181.90 29.62 180.43 28.92 179.70 28.56 C 179.76 21.06 179.73 13.56 179.72 6.06 Z" />
<path fill="#ffffff" d=" M 261.79 5.12 C 263.75 5.03 265.71 4.98 267.67 4.92 C 270.85 6.50 272.45 9.55 272.13 13.08 C 269.96 15.92 267.25 18.49 266.20 22.01 C 264.71 21.99 263.21 21.96 261.73 21.92 C 261.81 18.62 263.44 15.82 265.59 13.44 C 266.96 12.19 266.35 10.31 266.30 8.71 C 263.99 8.98 261.73 9.48 259.49 10.09 C 259.07 8.88 258.65 7.66 258.23 6.44 C 259.42 6.02 260.61 5.58 261.79 5.12 Z" />
<path fill="#ffffff" d=" M 7.83 7.99 C 9.56 8.00 11.30 8.01 13.04 8.03 C 14.00 13.01 14.95 17.99 16.19 22.91 C 17.56 18.66 18.73 14.35 19.85 10.02 C 21.40 10.01 22.96 10.00 24.51 9.99 C 25.64 14.32 26.90 18.60 28.28 22.85 C 29.61 17.96 30.78 13.02 31.70 8.04 C 33.56 8.01 35.43 8.00 37.29 7.98 C 35.60 15.39 33.88 22.81 31.38 30.00 C 29.64 30.00 27.89 30.00 26.14 30.00 C 24.82 25.98 23.55 21.92 21.90 18.01 C 20.59 21.99 19.42 26.01 18.06 29.97 C 16.42 29.99 14.78 30.00 13.15 30.02 C 10.76 22.85 8.41 15.56 7.83 7.99 Z" />
<path fill="#ffffff" d=" M 91.69 8.03 C 93.89 8.00 96.08 8.00 98.27 8.05 C 99.55 8.60 100.84 9.13 102.14 9.64 C 101.62 10.80 101.11 11.97 100.60 13.14 C 97.59 12.26 93.94 10.95 91.19 13.23 C 87.32 16.53 88.09 24.55 93.46 25.92 C 96.05 26.42 98.61 25.56 101.09 24.88 C 101.51 26.16 101.93 27.43 102.34 28.71 C 97.91 29.99 92.72 31.12 88.47 28.73 C 81.47 25.24 81.46 13.87 87.96 9.86 C 89.16 9.16 90.45 8.64 91.69 8.03 Z" />
<path fill="#ffffff" d=" M 145.58 8.01 C 146.25 8.01 147.58 8.00 148.24 7.99 C 148.24 9.66 148.24 11.33 148.24 13.00 C 150.13 13.00 152.01 13.00 153.90 13.00 C 153.90 14.33 153.90 15.66 153.91 16.99 C 151.99 17.00 150.08 17.01 148.17 17.02 C 148.20 20.07 148.24 23.14 148.86 26.14 C 150.57 26.01 152.29 25.86 154.00 25.67 C 154.16 26.62 154.46 28.52 154.61 29.46 C 150.85 30.31 145.41 30.95 143.64 26.54 C 142.57 20.90 143.41 15.08 143.09 9.38 C 143.72 9.03 144.96 8.35 145.58 8.01 Z" />
<path fill="#ffffff" d=" M 220.59 8.01 C 221.25 8.01 222.58 8.00 223.24 7.99 C 223.24 9.66 223.24 11.33 223.24 13.00 C 225.13 13.00 227.01 13.00 228.90 13.00 C 228.90 14.33 228.90 15.66 228.91 16.99 C 226.99 17.00 225.08 17.01 223.17 17.02 C 223.20 20.08 223.24 23.14 223.86 26.14 C 225.57 26.01 227.29 25.86 229.00 25.67 C 229.16 26.62 229.46 28.51 229.61 29.46 C 226.56 29.89 222.95 30.92 220.31 28.75 C 218.81 27.69 218.26 25.86 218.22 24.10 C 217.98 19.20 218.24 14.28 218.09 9.37 C 218.72 9.03 219.96 8.35 220.59 8.01 Z" />
<path fill="#ffffff" d=" M 56.81 13.04 C 58.58 13.02 60.35 13.00 62.13 12.98 C 63.26 16.62 64.40 20.27 65.64 23.88 C 66.63 20.27 67.53 16.64 68.41 13.00 C 70.20 13.00 71.99 13.00 73.78 13.00 C 71.71 19.88 69.81 26.95 66.18 33.20 C 64.37 36.49 60.34 36.11 57.15 35.99 C 57.15 34.69 57.16 33.39 57.17 32.09 C 58.62 32.03 60.07 31.97 61.52 31.90 C 61.95 31.35 62.82 30.25 63.26 29.70 C 60.83 24.26 58.51 18.76 56.81 13.04 Z" />
<path fill="#ffffff" d=" M 104.03 20.91 C 103.70 17.10 106.81 14.62 109.73 12.88 C 112.45 12.97 115.45 12.77 117.70 14.62 C 121.72 18.07 121.72 24.94 117.69 28.39 C 115.42 30.25 112.40 30.03 109.65 30.10 C 106.28 28.27 103.31 25.07 104.03 20.91 Z" />
<path fill="#ffffff" d=" M 126.74 13.03 C 130.35 13.12 134.97 12.04 137.47 15.38 C 139.72 19.90 138.54 25.15 138.82 30.00 C 137.08 30.00 135.35 30.00 133.61 30.00 C 133.56 26.26 133.90 22.49 133.30 18.79 C 133.11 16.60 130.39 17.21 128.91 16.69 C 128.90 21.13 128.90 25.56 128.90 30.00 C 127.29 30.00 125.68 30.00 124.06 30.00 C 124.05 24.82 124.11 19.63 124.01 14.45 C 124.69 14.10 126.06 13.39 126.74 13.03 Z" />
<path fill="#ffffff" d=" M 157.59 14.17 C 161.22 12.92 165.05 12.85 168.84 13.04 C 168.76 14.35 168.67 15.66 168.57 16.98 C 166.65 16.99 164.74 17.00 162.82 17.01 C 162.82 21.34 162.82 25.67 162.82 30.00 C 161.09 30.00 159.35 30.00 157.62 30.00 C 157.61 24.72 157.64 19.45 157.59 14.17 Z" />
<path fill="#ffffff" d=" M 170.73 13.02 C 172.42 13.01 174.12 13.00 175.82 12.99 C 175.82 18.66 175.82 24.34 175.82 30.01 C 174.12 30.00 172.42 29.99 170.73 29.98 C 170.73 24.33 170.73 18.67 170.73 13.02 Z" />
<path fill="#ffffff" d=" M 199.07 13.00 C 200.68 13.00 202.29 13.00 203.91 13.00 C 203.98 16.92 203.57 20.90 204.35 24.77 C 205.30 26.09 207.18 25.88 208.58 26.37 C 208.65 21.91 208.61 17.46 208.62 13.00 C 210.35 13.00 212.09 13.00 213.82 13.00 C 213.82 18.30 213.80 23.59 213.85 28.89 C 210.54 30.14 206.99 30.08 203.51 30.05 C 201.94 28.83 199.70 27.88 199.34 25.68 C 198.75 21.48 199.17 17.22 199.07 13.00 Z" />
<path fill="#ffffff" d=" M 237.46 13.41 C 240.15 12.52 243.37 12.70 245.68 14.48 C 248.51 16.26 248.21 20.04 248.79 22.92 C 244.74 23.03 240.68 22.97 236.64 23.09 C 237.68 24.13 238.73 25.16 239.80 26.18 C 242.21 26.03 244.62 25.78 246.96 25.17 C 247.16 26.46 247.37 27.74 247.59 29.02 C 243.64 30.20 238.88 30.98 235.29 28.44 C 230.12 24.82 231.40 15.39 237.46 13.41 Z" />
<path fill="#dd4814" d=" M 111.13 17.01 C 111.87 17.00 113.35 16.97 114.08 16.96 C 115.72 19.84 115.71 23.17 114.08 26.04 C 113.34 26.03 111.87 26.00 111.13 25.99 C 110.48 25.22 109.83 24.45 109.18 23.68 C 109.18 22.23 109.18 20.78 109.18 19.33 C 109.83 18.55 110.48 17.78 111.13 17.01 Z" />
<path fill="#dd4814" d=" M 184.94 16.89 C 186.18 16.93 187.42 17.02 188.66 17.16 C 191.66 19.27 190.47 23.68 188.47 26.11 C 187.58 26.07 185.79 25.98 184.90 25.93 C 184.90 22.92 184.90 19.91 184.94 16.89 Z" />
<path fill="#dd4814" d=" M 239.10 16.99 C 239.81 16.99 241.21 16.98 241.91 16.97 C 242.49 17.97 243.06 18.98 243.63 19.98 C 241.32 19.99 239.02 19.97 236.71 19.92 C 237.50 18.94 238.30 17.97 239.10 16.99 Z" />
<path fill="#ffffff" d=" M 262.72 23.95 C 263.58 23.96 265.31 23.96 266.17 23.97 C 267.76 25.94 267.76 28.06 266.17 30.03 C 265.31 30.04 263.59 30.05 262.73 30.05 C 260.99 28.09 260.99 25.91 262.72 23.95 Z" />
</svg>
